<?xml version="1.0" encoding="utf-8"?>
<!-- Generator: Adobe Illustrator 27.8.1, SVG Export Plug-In . SVG Version: 6.00 Build 0)  -->
<svg version="1.1" id="Layer_1" xmlns="http://www.w3.org/2000/svg" xmlns:xlink="http://www.w3.org/1999/xlink" x="0px" y="0px"
	 viewBox="0 0 128.79 49.69" style="enable-background:new 0 0 128.79 49.69;" xml:space="preserve">
<style type="text/css">
	.st0{fill:#EC1274;}
	.st1{fill:#852B79;}
</style>
<g>
	<g>
		<path class="st0" d="M13.03,9.35C1.91,9.35,0.15,20.06,0.11,21.09l0.64,0.08c0,0,2-6.69,12.17-5.11c0.15-1.7,1.59-3.04,3.36-3.04
			c1.87,0,3.38,1.5,3.38,3.34c0,1.01-0.47,1.91-1.19,2.52c0.26,0.23,1.37,1.26,1.37,2.29h5.46C25.29,21.18,24.16,9.35,13.03,9.35z"
			/>
		<path class="st0" d="M18.35,4.34c0,2.4-1.97,4.34-4.4,4.34c-2.43,0-4.4-1.94-4.4-4.34c0-2.39,1.98-4.34,4.4-4.34
			C16.38,0,18.35,1.95,18.35,4.34"/>
	</g>
	<g>
		<path class="st0" d="M24.93,34.95h-2.61v-1.66h-0.05c-0.65,1.2-2.09,1.97-3.42,1.97c-3.16,0-4.49-1.53-4.49-4.66v-7.52h2.64v7.27
			c0,2.1,0.83,2.85,2.31,2.85c2.21,0,2.95-1.4,2.95-3.24v-6.88h2.65V34.95z"/>
		<path class="st0" d="M11.7,34.33c0,3.59-2.1,5.33-5.91,5.33c-2.42,0-5.11-0.92-5.37-3.69h2.65c0.33,1.49,1.54,1.74,2.88,1.74
			c2.14,0,3.09-1.08,3.09-3.03v-1.8H9c-0.74,1.3-2.11,2.08-3.6,2.08c-3.82,0-5.4-2.85-5.4-6.24c0-3.19,2.03-5.95,5.44-5.95
			c1.51,0,2.88,0.6,3.55,1.96h0.05v-1.63h2.66V34.33z M9.05,28.75c0-2.04-0.93-3.92-3.24-3.92c-2.35,0-3.16,2.16-3.16,4.13
			c0,1.93,0.95,3.93,3.16,3.93C8.16,32.88,9.05,30.79,9.05,28.75"/>
		<rect x="27.79" y="18.56" class="st0" width="2.65" height="16.39"/>
		<path class="st0" d="M32.15,23.08h1.98v-0.99c0-3.03,1.61-3.54,3.33-3.54c0.86,0,1.47,0.05,1.85,0.16v2.04
			c-0.35-0.09-0.69-0.14-1.23-0.14c-0.73,0-1.31,0.26-1.31,1.24v1.22h2.26v1.95h-2.26v9.92h-2.65v-9.92h-1.98V23.08z"/>
	</g>
	<g>
		<path class="st1" d="M42.85,34.52V22.94h1.49v1.48h0.04c0.82-1.18,2.06-1.78,3.72-1.78c0.8,0,1.5,0.14,2.14,0.43
			c0.64,0.28,1.2,0.68,1.69,1.21c0.31,0.35,0.57,0.79,0.77,1.34c0.31,0.78,0.46,1.63,0.46,2.53v6.37h-1.49v-6.37
			c0-0.92-0.18-1.71-0.51-2.35c-0.34-0.64-0.81-1.1-1.4-1.39c-0.59-0.3-1.18-0.43-1.77-0.43c-0.62,0-1.23,0.15-1.84,0.47
			c-0.61,0.33-1.06,0.8-1.36,1.41c-0.3,0.63-0.45,1.39-0.45,2.28v6.37H42.85z"/>
		<path class="st1" d="M67.58,29.27H56.89c0.05,0.63,0.19,1.18,0.42,1.66c0.23,0.49,0.55,0.92,0.96,1.29
			c0.41,0.37,0.87,0.67,1.42,0.9c0.54,0.23,1.12,0.35,1.75,0.35c0.95,0,1.79-0.25,2.55-0.74c0.77-0.49,1.31-1.16,1.66-2h1.59
			c-0.27,0.71-0.59,1.29-0.97,1.75c-0.6,0.74-1.32,1.31-2.15,1.71c-0.84,0.41-1.75,0.61-2.73,0.61c-1.68,0-3.1-0.58-4.28-1.74
			c-1.18-1.16-1.77-2.57-1.77-4.24c0-1.11,0.27-2.15,0.82-3.11c0.54-0.96,1.3-1.71,2.28-2.26c0.98-0.54,1.99-0.81,3.03-0.81
			c1.03,0,2.04,0.27,3.01,0.81c0.97,0.55,1.72,1.3,2.28,2.27c0.55,0.97,0.83,1.99,0.83,3.05C67.59,28.9,67.58,29.05,67.58,29.27
			 M66.05,27.94c-0.11-0.59-0.28-1.09-0.5-1.5c-0.21-0.41-0.51-0.8-0.89-1.17c-0.39-0.37-0.86-0.68-1.41-0.92
			c-0.55-0.24-1.15-0.36-1.79-0.36c-0.62,0-1.2,0.11-1.74,0.33c-0.54,0.23-1,0.52-1.39,0.87c-0.4,0.36-0.71,0.76-0.94,1.21
			c-0.22,0.44-0.4,0.96-0.51,1.54H66.05z"/>
		<path class="st1" d="M69.38,28.81c0-0.87,0.16-1.68,0.49-2.43c0.32-0.73,0.74-1.37,1.27-1.9c0.54-0.52,1.12-0.94,1.77-1.24
			c0.83-0.4,1.7-0.6,2.62-0.6c1.04,0,2.05,0.27,3.03,0.81c0.97,0.54,1.72,1.3,2.27,2.27c0.55,0.97,0.83,1.97,0.83,3
			c0,1.02-0.28,2.02-0.82,2.99c-0.55,0.97-1.31,1.72-2.27,2.27c-0.97,0.54-1.99,0.81-3.05,0.81c-0.76,0-1.48-0.14-2.17-0.39
			c-0.68-0.26-1.29-0.63-1.82-1.09c-0.54-0.47-0.95-0.94-1.25-1.43c-0.29-0.49-0.51-0.98-0.66-1.5
			C69.45,29.86,69.38,29.33,69.38,28.81 M70.87,28.78c0,0.81,0.2,1.58,0.61,2.31c0.4,0.74,0.97,1.31,1.72,1.74
			c0.75,0.43,1.52,0.64,2.31,0.64c0.79,0,1.55-0.21,2.29-0.62c0.73-0.41,1.31-0.99,1.71-1.73c0.42-0.75,0.63-1.55,0.63-2.43
			c0-0.89-0.21-1.69-0.63-2.41c-0.42-0.73-1.01-1.28-1.77-1.69c-0.75-0.41-1.5-0.6-2.24-0.6c-0.76,0-1.51,0.2-2.26,0.63
			c-0.76,0.43-1.35,1.01-1.76,1.75C71.08,27.11,70.87,27.92,70.87,28.78"/>
		<path class="st1" d="M93.89,31.12h1.65c-0.39,0.74-0.8,1.32-1.21,1.77c-0.58,0.6-1.25,1.07-2.01,1.41
			c-0.75,0.34-1.6,0.51-2.56,0.51c-1.19,0-2.26-0.27-3.23-0.8c-0.97-0.52-1.73-1.27-2.3-2.21c-0.56-0.95-0.84-1.96-0.84-3.05
			c0-1.05,0.27-2.07,0.83-3.02s1.33-1.72,2.33-2.26c0.99-0.54,2.05-0.81,3.15-0.81c0.9,0,1.78,0.17,2.59,0.53
			c0.84,0.35,1.53,0.84,2.11,1.46c0.42,0.46,0.8,1.06,1.13,1.8h-1.65c-0.27-0.46-0.54-0.83-0.81-1.11c-0.4-0.4-0.89-0.72-1.46-0.98
			c-0.56-0.25-1.18-0.36-1.85-0.36c-0.85,0-1.66,0.2-2.43,0.62c-0.77,0.41-1.38,0.98-1.81,1.71c-0.42,0.73-0.63,1.53-0.63,2.38
			c0,0.85,0.21,1.66,0.64,2.4c0.42,0.75,1.02,1.33,1.77,1.75c0.75,0.42,1.58,0.63,2.47,0.63s1.7-0.2,2.41-0.61
			C92.91,32.45,93.47,31.87,93.89,31.12"/>
		<path class="st1" d="M109.37,22.94v11.58h-1.51v-2.04h-0.04c-0.32,0.44-0.61,0.79-0.89,1.03c-0.45,0.38-0.98,0.68-1.61,0.93
			c-0.63,0.24-1.36,0.36-2.18,0.36c-1.22,0-2.29-0.27-3.23-0.81c-0.95-0.54-1.67-1.29-2.2-2.25c-0.51-0.96-0.77-1.97-0.77-3.01
			c0-1.07,0.27-2.08,0.81-3.04c0.54-0.96,1.3-1.71,2.29-2.25c0.98-0.54,2.03-0.8,3.16-0.8c0.75,0,1.43,0.11,2.05,0.34
			c0.62,0.22,1.16,0.52,1.61,0.92c0.32,0.26,0.62,0.62,0.93,1.06h0.04v-2.03H109.37z M98.44,28.77c0,0.84,0.21,1.63,0.6,2.35
			c0.39,0.74,0.98,1.31,1.72,1.73c0.75,0.41,1.56,0.63,2.41,0.63c0.86,0,1.66-0.21,2.41-0.62c0.74-0.41,1.32-0.99,1.75-1.72
			c0.42-0.73,0.62-1.53,0.62-2.37c0-0.85-0.21-1.66-0.64-2.4c-0.42-0.76-1-1.34-1.73-1.75c-0.73-0.42-1.52-0.62-2.37-0.62
			c-0.45,0-0.89,0.04-1.3,0.16c-0.41,0.12-0.81,0.27-1.19,0.49c-0.38,0.22-0.75,0.51-1.1,0.88c-0.36,0.37-0.64,0.84-0.86,1.41
			C98.55,27.5,98.44,28.12,98.44,28.77"/>
		<path class="st1" d="M112.09,34.52V22.94h1.5v1.68h0.04c0.21-0.44,0.44-0.8,0.71-1.06c0.27-0.27,0.6-0.47,0.99-0.62
			c0.39-0.14,0.92-0.24,1.6-0.3v1.57c-0.76,0.08-1.4,0.27-1.91,0.61c-0.5,0.33-0.87,0.77-1.1,1.32c-0.23,0.55-0.34,1.09-0.34,1.61
			v6.77H112.09z"/>
		<path class="st1" d="M128.67,29.27h-10.69c0.06,0.63,0.19,1.18,0.42,1.66c0.24,0.49,0.56,0.92,0.97,1.29
			c0.41,0.37,0.89,0.67,1.42,0.9c0.54,0.23,1.13,0.35,1.76,0.35c0.94,0,1.78-0.25,2.55-0.74c0.75-0.49,1.31-1.16,1.64-2h1.59
			c-0.26,0.71-0.58,1.29-0.95,1.75c-0.6,0.74-1.32,1.31-2.16,1.71c-0.83,0.41-1.74,0.61-2.72,0.61c-1.68,0-3.1-0.58-4.28-1.74
			c-1.18-1.16-1.77-2.57-1.77-4.24c0-1.11,0.27-2.15,0.81-3.11c0.55-0.96,1.31-1.71,2.29-2.26c0.98-0.54,1.98-0.81,3.02-0.81
			c1.04,0,2.04,0.27,3.01,0.81c0.97,0.55,1.73,1.3,2.27,2.27c0.55,0.97,0.82,1.99,0.82,3.05C128.68,28.9,128.67,29.05,128.67,29.27
			 M127.15,27.94c-0.12-0.59-0.29-1.09-0.5-1.5c-0.21-0.41-0.51-0.8-0.9-1.17c-0.38-0.37-0.86-0.68-1.41-0.92
			c-0.56-0.24-1.15-0.36-1.79-0.36c-0.62,0-1.2,0.11-1.73,0.33c-0.53,0.23-1,0.52-1.4,0.87c-0.4,0.36-0.71,0.76-0.94,1.21
			c-0.23,0.44-0.39,0.96-0.51,1.54H127.15z"/>
	</g>
	<g>
		<g>
			<path class="st1" d="M1.12,43.12c0.14-0.26,0.25-0.4,0.29-0.44c0.43,0.25,0.69,0.41,0.81,0.46l0.35-0.57L1.7,42.06
				c-0.17,0.24-0.26,0.39-0.29,0.43l-0.82-0.46l-0.35,0.61c0.09,0.05,0.24,0.14,0.44,0.25L1.12,43.12z"/>
			<path class="st1" d="M12.94,48.63c-0.42-0.27-0.73-0.43-0.88-0.51c-0.12,0.14-0.24,0.36-0.37,0.64l0.89,0.48l0.26-0.4
				c0.39,0.19,0.66,0.34,0.85,0.45c0.1-0.14,0.21-0.34,0.35-0.62c-0.49-0.3-0.77-0.44-0.84-0.47L12.94,48.63z"/>
			<path class="st1" d="M16.5,48.93l0.84,0.5c0.14-0.25,0.26-0.46,0.38-0.62c-0.59-0.31-0.89-0.47-0.89-0.47L16.5,48.93z"/>
			<path class="st1" d="M24.89,48.63c-0.43-0.27-0.73-0.43-0.88-0.51c-0.12,0.14-0.23,0.36-0.37,0.64l0.89,0.48l0.26-0.4
				c0.37,0.19,0.66,0.34,0.86,0.45c0.09-0.14,0.2-0.34,0.34-0.62c-0.48-0.3-0.76-0.44-0.84-0.47L24.89,48.63z"/>
			<path class="st1" d="M36.47,42.88c-0.28-0.14-0.5-0.26-0.66-0.36c-0.05-0.03-0.07-0.07-0.07-0.12c0,0.03,0.02-0.04,0.07-0.23
				c-0.03-0.04-0.07-0.08-0.11-0.09c-0.12,0.16-0.28,0.38-0.44,0.67c-0.09,0.15-0.13,0.27-0.13,0.33v0.08
				c0.07,0.09,0.13,0.16,0.2,0.21c0.01,0.01,0.01,0.03,0.01,0.05l0.29,1.85c0.05,0.31,0.07,0.5,0.07,0.59l0.04,0.39
				c0.03,0.16,0.04,0.25,0.04,0.26c0,0.04-0.01,0.09-0.05,0.16c-1.37-0.01-2.06-0.01-2.06,0l0.24-0.8
				c-0.83-0.01-1.73-0.29-2.73-0.83c-0.4-0.13-0.52-0.16-0.82-0.16c-0.19,0-0.35,0.05-0.49,0.14c-0.28,0.17-0.53,0.46-0.75,0.85
				c0.04,0.01,0.1,0,0.17-0.04l0.15-0.08c0.14-0.07,0.28-0.09,0.42-0.09c0.06,0,0.17,0.01,0.29,0.04l0.54,0.15
				c0.44,0.11,0.7,0.21,0.77,0.3c-0.22,0.23-0.51,0.37-0.85,0.44c-0.06,0-0.25,0.07-0.28,0.07h-2.02h-0.32
				c-0.08-0.8-0.12-1.38-0.14-1.76c-0.02-0.3-0.04-0.53-0.05-0.68c-0.03-0.62-0.07-1.07-0.1-1.37c-0.01-0.29-0.03-0.62-0.07-0.99
				l-0.66,0.79l0.55,4.01h-1.36h-0.3H25.8c-0.01-0.15-0.04-0.43-0.04-0.46V45.5c0-0.02-0.02-0.13-0.04-0.3
				c-0.03-0.18-0.04-0.31-0.04-0.37c-0.03,0.02-0.12,0.13-0.31,0.37c-0.17,0.24-0.26,0.4-0.26,0.46c0,0.01,0.03,0.14,0.07,0.41
				c0.05,0.26,0.07,0.43,0.07,0.53c0,0.04,0,0.07-0.02,0.09h-2.03h-3.38h-1.7c-0.12,0-0.26-0.22-0.27-0.36
				c0.27-0.13,0.54-0.2,0.81-0.2h0.66c0.15-0.34,0.25-0.61,0.31-0.78c-0.09,0.01-0.25,0.02-0.45,0.02c-0.37,0-0.92-0.1-1.61-0.3
				c-0.69-0.19-1.15-0.3-1.38-0.3c-0.05,0-0.2,0.02-0.26,0c-0.14,0-0.32,0.14-0.55,0.39c-0.22,0.25-0.34,0.45-0.34,0.59v0.19
				l0.32-0.21c0.19-0.12,0.37-0.16,0.52-0.16c0.19,0,0.73,0.12,1.62,0.37c-0.2,0.18-0.48,0.35-0.83,0.5
				c-0.37,0.16-0.68,0.24-0.94,0.24H14.2H13.9h-0.05c-0.01-0.15-0.03-0.43-0.03-0.46V45.5c0-0.02-0.01-0.13-0.04-0.3
				c-0.02-0.18-0.04-0.31-0.04-0.37c-0.02,0.02-0.12,0.13-0.32,0.37c-0.16,0.24-0.25,0.4-0.25,0.46c0,0.01,0.02,0.14,0.05,0.41
				c0.05,0.26,0.07,0.43,0.07,0.53c0,0.04,0,0.07-0.01,0.09h-1.19h-0.26H11.3h-0.26H10.9h-0.26h-0.53H9.85H9.71H9.45H8.52H8.26H7.33
				H7.06H6.13H5.87H4.94H4.67H3.7H3.51c-0.24,0-0.39-0.05-0.48-0.15C3.01,46.49,3,46.45,3,46.4c-0.17-1.35-0.28-2.38-0.36-3.05
				c-0.31,0.35-0.48,0.57-0.52,0.66c-0.01,0.19,0,0.33,0.02,0.43c-0.08,0.05-0.29,0.12-0.61,0.21c-0.27,0.09-0.46,0.18-0.57,0.28
				c-0.37,0.32-0.62,0.79-0.72,1.38c0.12,0.08,0.26,0.16,0.42,0.21C0.73,46.58,0.84,46.6,1,46.64c0.54,0.14,0.85,0.22,0.9,0.22
				c0.06,0,0.1-0.03,0.15-0.07c0.05-0.09,0.1-0.18,0.14-0.28c0.07-0.12,0.16-0.19,0.25-0.24c0.04,0.07,0.05,0.14,0.07,0.22
				c0.04,0.32,0.07,0.5,0.09,0.56c0.06,0.14,0.15,0.25,0.28,0.31C2.93,47.4,3,47.41,3.05,47.41h0.44H3.7h0.97h0.26h0.94h0.26h0.93
				h0.27h0.93h0.26h0.93h0.27h0.14h0.26h0.53h0.26h0.14h0.26h0.53h0.26h0.9c0.2-0.26,0.3-0.41,0.34-0.43l0.27,0.43h0.6v0H16
				c0.12,0,0.27-0.06,0.44-0.19c0.14-0.09,0.27-0.18,0.4-0.27c0.25-0.17,0.47-0.31,0.64-0.45c0.05,0.25,0.07,0.43,0.09,0.55
				c0.04,0.09,0.18,0.37,0.27,0.37h1.96v0h5.13c0.2-0.26,0.3-0.41,0.34-0.43l0.25,0.43h0.31h0.3h1.09c0.08,0,0.17-0.11,0.28-0.33
				c0.04,0.04,0.04,0.05,0.04,0.05c0,0.06,0.03,0.23,0.03,0.28h0.35h0.38h1.85c0,0,0.43-0.21,1.3-0.6c0.15-0.08,0.48-0.12,0.96-0.12
				c0.35,0,0.59,0.01,0.72,0.03c0.08,0.11,0.13,0.33,0.15,0.68h2.61c0.09-0.21,0.15-0.38,0.18-0.52c0.08-0.43,0.12-0.72,0.12-0.86
				l-0.23-2.35l0.08,0.02L36.47,42.88z M2.02,46.04c-0.14,0-0.37-0.02-0.84-0.19c-0.15-0.05-0.27-0.12-0.38-0.23
				c0.12-0.08,0.3-0.16,0.54-0.23c0.25-0.1,0.44-0.16,0.52-0.23c0.14-0.16,0.25-0.3,0.32-0.44l0.23,1.32H2.02z"/>
			<path class="st1" d="M30.86,43.52c0.09-0.21,0.22-0.44,0.37-0.68l-0.98-0.5l-0.22,0.36c-0.09,0.14-0.12,0.23-0.12,0.25v0.07
				l0.86,0.49H30.86z"/>
			<path class="st1" d="M37.62,42.7l0.47,4.71c0.25-0.5,0.38-0.93,0.38-1.3l-0.27-4.64C37.81,42.07,37.62,42.48,37.62,42.7z"/>
		</g>
		<g>
			<path class="st1" d="M55.91,48.63c-0.43-0.27-0.73-0.43-0.88-0.51c-0.12,0.14-0.23,0.36-0.37,0.64l0.89,0.48l0.26-0.4
				c0.38,0.19,0.67,0.34,0.85,0.45c0.09-0.14,0.21-0.34,0.36-0.62c-0.49-0.3-0.78-0.44-0.84-0.47L55.91,48.63z"/>
			<path class="st1" d="M59.43,42.75l-0.61-0.32c-0.07-0.03-0.09-0.09-0.09-0.15c0,0,0.01-0.04,0.03-0.13
				c0.01-0.08,0.01-0.13,0-0.17h-0.13c-0.22,0.35-0.39,0.62-0.48,0.82c-0.02,0.04-0.03,0.1-0.03,0.17c0,0.06,0.01,0.12,0.03,0.15
				c0.07,0.08,0.12,0.14,0.17,0.17c0.11,0.77,0.2,1.38,0.26,1.8c0.02,0.14,0.05,0.34,0.08,0.58c0.05,0.4,0.07,0.65,0.07,0.72
				c0,0.2-0.04,0.24-0.04,0.27c-0.16,0-0.76,0-1.83,0h-0.05c-0.01-0.15-0.04-0.43-0.04-0.46V45.5c0-0.02-0.01-0.13-0.04-0.3
				c-0.03-0.18-0.03-0.31-0.03-0.37c-0.03,0.02-0.14,0.13-0.31,0.37c-0.17,0.24-0.26,0.4-0.26,0.46c0,0.01,0.02,0.14,0.06,0.41
				c0.04,0.26,0.07,0.43,0.07,0.53c0,0.04,0,0.07-0.01,0.09h-1.99H54h-0.94H52.8h-0.92h-0.27h-0.93h-0.26H49.5h-0.26h-0.94h-0.25
				h-0.94h-0.26h-0.91h-0.29h-0.12c-0.17-0.27-0.31-0.72-0.42-1.36c-0.11-0.72-0.23-1.2-0.34-1.47l-0.42,0.8l0.41,1.55
				c-0.04,0.28-0.16,0.45-0.32,0.48c-0.44,0.11-0.85,0.15-1.21,0.15c-0.25,0-0.47-0.02-0.69-0.07c-0.12-0.09-0.16-0.13-0.18-0.29
				c-0.01-0.23-0.03-0.36-0.09-0.37c-0.19,0.53-0.28,0.9-0.28,1.1c0,0.04,0.02,0.12,0.07,0.24c0.04,0.04,0.08,0.07,0.1,0.08
				c0.18,0.05,0.37,0.07,0.59,0.07c0.3,0,0.68-0.02,1.1-0.07c0.37-0.06,0.58-0.1,0.64-0.14c0.22-0.27,0.36-0.51,0.42-0.67l0.17,0.33
				c0.14,0.29,0.36,0.38,0.45,0.38h0.11h0.29h0.91h0.26h0.94h0.25h0.94h0.26h0.93h0.26h0.93h0.27h0.92h0.26H54h0.26h1.7
				c0.2-0.26,0.3-0.41,0.34-0.43l0.26,0.43h0.31h0.3h1.68c0.11-0.14,0.17-0.31,0.21-0.5l0.07-0.51c0.04-0.14,0.04-0.27,0.04-0.39
				l-0.23-2.44l0.05,0.03C59.14,43.34,59.29,43.06,59.43,42.75z"/>
			<path class="st1" d="M61.04,41.47c-0.39,0.59-0.59,1.01-0.59,1.23l0.48,4.71c0.25-0.5,0.37-0.93,0.37-1.3L61.04,41.47z"/>
			<path class="st1" d="M70.5,46.52c-0.39-0.24-0.59-0.41-0.62-0.55c-0.04-0.17-0.06-0.39-0.06-0.66v-0.7c0,0.02-0.01-0.1-0.03-0.39
				c-0.01-0.26-0.03-0.46-0.01-0.57h0.04l0.44-0.86c-0.42-0.21-0.67-0.36-0.73-0.41c0-0.02,0.01-0.09,0.03-0.24
				c0.02-0.09-0.01-0.14-0.07-0.16c-0.09,0.07-0.21,0.23-0.37,0.51c-0.14,0.27-0.22,0.43-0.22,0.49c0,0.07,0.01,0.13,0.04,0.14
				l0.18,0.15l0.17,1.69l0.05,0.59L69.39,46c0.03,0.18,0.04,0.26,0.04,0.28c0,0.12-0.13,0.21-0.39,0.3
				c-0.2,0.06-0.35,0.09-0.45,0.09h-0.64h-0.39h-0.79H66.5h-1.19v0c-0.16-0.01-0.24-0.07-0.25-0.17c-0.09-0.88-0.32-1.45-0.7-1.73
				c-0.07-0.04-0.14-0.07-0.23-0.07c-0.05,0-0.09,0.01-0.15,0.03c-0.35,0.17-0.6,0.6-0.78,1c-0.07,0.15-0.13,0.34-0.17,0.57
				c-0.02,0.02-0.02,0.09-0.02,0.21c0,0.19,0.03,0.34,0.07,0.42c0.13,0.23,0.37,0.38,0.72,0.41l0.86,0.06
				c-0.11,0.33-0.37,0.66-0.74,1.01c-0.39,0.34-0.73,0.58-1.05,0.7c-0.18,0.06-0.33,0.09-0.48,0.09c-0.1,0-0.16,0-0.19-0.01
				c-0.32-0.08-0.59-0.14-0.76-0.2c-0.1-0.03-0.16-0.04-0.21-0.04c-0.04,0-0.07,0.04-0.11,0.1c0.17,0.18,0.44,0.3,0.84,0.37
				l0.73,0.16c0.28,0.07,0.43,0.1,0.45,0.1c0.15,0,0.26-0.03,0.35-0.07c0.21-0.09,0.36-0.16,0.45-0.24
				c0.45-0.37,0.79-0.95,1.04-1.74c0.04-0.11,0.05-0.2,0.07-0.24h0.26h0.21h0.98h0.26h1.19v0h0.62c0,0,0.19-0.05,0.53-0.16
				c0.35-0.11,0.56-0.17,0.56-0.17c0.27,0,0.62,0.3,1.08,0.86c0.16-0.26,0.35-0.59,0.35-0.76C71.08,46.98,70.9,46.76,70.5,46.52z
				 M64.32,46.58c-0.12,0-0.2,0-0.22-0.02c-0.24-0.04-0.43-0.1-0.53-0.16c-0.15-0.06-0.2-0.14-0.2-0.2c0-0.09,0.07-0.22,0.22-0.35
				c0.16-0.16,0.25-0.23,0.27-0.23c0.04-0.01,0.07-0.01,0.12-0.01c0.05,0,0.09,0,0.1,0.01c0.07,0.01,0.15,0.07,0.22,0.14
				c0.22,0.22,0.32,0.47,0.32,0.76C64.56,46.55,64.47,46.58,64.32,46.58z"/>
			<path class="st1" d="M72.29,42.7l0.48,4.71c0.25-0.5,0.38-0.93,0.38-1.3l-0.28-4.64C72.49,42.07,72.29,42.48,72.29,42.7z"/>
		</g>
		<g>
			<path class="st1" d="M78.11,43.12c0.14-0.26,0.25-0.4,0.29-0.44c0.42,0.25,0.69,0.41,0.8,0.46l0.35-0.57l-0.87-0.52
				c-0.17,0.24-0.26,0.39-0.28,0.43l-0.83-0.46l-0.35,0.61c0.09,0.05,0.24,0.14,0.44,0.25L78.11,43.12z"/>
			<path class="st1" d="M88.56,44.57c-0.28,0.41-0.42,0.67-0.42,0.75c0,0.01,0.05,0.11,0.14,0.29c0.12,0.2,0.18,0.34,0.21,0.42
				c0.1,0.28,0.15,0.49,0.17,0.64h-1.97v0h-1.19h-0.26H84.3h-0.26h-0.94h-0.26h-0.94h-0.26h-0.97h-0.2c-0.23,0-0.4-0.05-0.48-0.15
				c-0.03-0.04-0.04-0.07-0.04-0.12c-0.17-1.35-0.29-2.38-0.36-3.05c-0.31,0.35-0.48,0.57-0.52,0.66c-0.01,0.19,0,0.33,0.03,0.43
				c-0.08,0.05-0.29,0.12-0.61,0.21c-0.27,0.09-0.46,0.18-0.57,0.28c-0.38,0.32-0.62,0.79-0.73,1.38c0.11,0.08,0.26,0.16,0.41,0.21
				c0.08,0.05,0.2,0.07,0.35,0.11c0.55,0.14,0.84,0.22,0.89,0.22c0.07,0,0.1-0.03,0.15-0.07c0.05-0.09,0.11-0.18,0.15-0.28
				c0.08-0.12,0.15-0.19,0.25-0.24c0.04,0.07,0.05,0.14,0.07,0.22c0.04,0.32,0.06,0.5,0.08,0.56c0.07,0.14,0.15,0.25,0.29,0.31
				c0.06,0.04,0.13,0.06,0.18,0.06h0.44h0.22h0.97h0.26h0.94h0.26h0.94h0.26h0.93h0.26h0.93h0.26h2.2c0.14-0.8,0.2-1.2,0.2-1.24
				c0-0.17-0.03-0.33-0.06-0.5C88.84,45.21,88.69,44.84,88.56,44.57z M79,46.04c-0.14,0-0.37-0.02-0.84-0.19
				c-0.14-0.05-0.27-0.12-0.37-0.23c0.12-0.08,0.29-0.16,0.54-0.23c0.25-0.1,0.42-0.16,0.52-0.23c0.15-0.16,0.24-0.3,0.32-0.44
				l0.23,1.32H79z"/>
			<path class="st1" d="M87.73,48.73l-0.8-0.48l-0.37,0.64l0.88,0.49c0.12-0.19,0.23-0.32,0.3-0.44l0.8,0.48
				c0.18-0.28,0.3-0.48,0.36-0.61l-0.88-0.5L87.73,48.73z"/>
			<path class="st1" d="M96.17,46.66h-0.25c-0.09,0-0.17-0.04-0.22-0.07c-0.54-0.32-0.87-0.56-0.96-0.69
				c-0.05-0.06-0.08-0.12-0.08-0.2c0-0.14,0.2-0.29,0.6-0.41c0.32-0.09,0.56-0.14,0.69-0.14c0.17,0,0.32,0.02,0.46,0.09
				c0.32,0.16,0.58,0.3,0.74,0.42l0.03-0.11c-0.19-0.53-0.47-0.89-0.83-1.07c-0.09-0.03-0.17-0.07-0.25-0.07
				c-0.12,0-0.28,0.03-0.46,0.09c-0.33,0.09-0.64,0.29-0.95,0.6c-0.27,0.3-0.49,0.6-0.65,0.94v0.3c0.08,0.22,0.15,0.33,0.18,0.33
				h-0.8h-0.39h-0.81h-0.17c-0.48,0-0.74-0.12-0.78-0.36c-0.12-0.8-0.22-1.61-0.29-2.45c-0.11-1.51-0.18-2.36-0.21-2.55
				c-0.3,0.34-0.47,0.55-0.54,0.66c-0.01,0.01-0.01,0.07-0.01,0.17l0.44,5.27h1.31h0.25h0.81h0.39h4.28l0.36-0.74L96.17,46.66z"/>
			<path class="st1" d="M100.52,44.54c-0.09,0.37-0.17,0.66-0.21,0.87c0.38,0.27,0.57,0.43,0.59,0.45c0.23,0.22,0.36,0.4,0.38,0.54
				c0.01,0.02,0.01,0.06,0.01,0.12c0,0.15-0.09,0.54-0.64,1.12c-0.28,0.29-0.51,0.49-0.73,0.64c-0.35,0.21-0.62,0.33-0.84,0.33
				c-0.07,0-0.13-0.01-0.2-0.03l-0.54-0.18c-0.24-0.09-0.37-0.15-0.38-0.15c-0.04,0-0.06,0.02-0.07,0.04v0.11
				c0.17,0.16,0.42,0.3,0.73,0.41c0.07,0.01,0.28,0.09,0.69,0.22c0.19,0.05,0.33,0.08,0.45,0.08c0.12,0,0.26-0.04,0.42-0.1
				c0.54-0.27,0.97-0.8,1.29-1.61c0.09-0.22,0.15-0.5,0.15-0.83c0-0.13-0.02-0.29-0.04-0.5C101.52,45.54,101.09,44.89,100.52,44.54z
				"/>
		</g>
		<g>
			<path class="st1" d="M105.02,43.12c0.14-0.26,0.25-0.4,0.28-0.44c0.43,0.25,0.69,0.41,0.8,0.46l0.35-0.57l-0.87-0.52
				c-0.17,0.24-0.26,0.39-0.29,0.43l-0.83-0.46l-0.35,0.61c0.09,0.05,0.25,0.14,0.44,0.25L105.02,43.12z"/>
			<path class="st1" d="M116.06,41.99h-0.56c-0.05-0.01-0.71,0.28-1.98,0.86c-0.27,0.13-0.49,0.25-0.66,0.35
				c-0.15,0.34-0.27,0.66-0.35,0.94c0,0.09-0.03,0.17-0.03,0.24c0,0.06,0.03,0.11,0.03,0.15c0.09,0.18,0.27,0.38,0.54,0.59
				c0.08,0.07,0.13,0.1,0.17,0.1c0.03,0,0.1-0.07,0.19-0.21c0.56,0.41,0.88,0.65,0.97,0.72c0.38,0.32,0.61,0.64,0.73,0.92h-2.7
				h-0.26h-0.93h-0.26h-0.93h-0.26h-0.93h-0.26h-0.97h-0.2c-0.23,0-0.39-0.05-0.47-0.15c-0.03-0.04-0.04-0.07-0.04-0.12
				c-0.17-1.35-0.28-2.38-0.36-3.05c-0.31,0.35-0.48,0.57-0.52,0.66c-0.01,0.19,0,0.33,0.03,0.43c-0.07,0.05-0.28,0.12-0.61,0.21
				c-0.27,0.09-0.45,0.18-0.57,0.28c-0.37,0.32-0.62,0.79-0.73,1.38c0.12,0.08,0.26,0.16,0.42,0.21c0.08,0.05,0.19,0.07,0.35,0.11
				c0.54,0.14,0.84,0.22,0.89,0.22c0.06,0,0.1-0.03,0.14-0.07c0.05-0.09,0.1-0.18,0.15-0.28c0.07-0.12,0.15-0.19,0.25-0.24
				c0.03,0.07,0.05,0.14,0.07,0.22c0.04,0.32,0.07,0.5,0.09,0.56c0.07,0.14,0.15,0.25,0.29,0.31c0.06,0.04,0.13,0.06,0.19,0.06h0.44
				h0.22h0.97h0.26h0.93h0.26h0.93h0.26h0.93h0.26h2.78c0.09-0.13,0.15-0.23,0.17-0.3c0.09-0.27,0.15-0.52,0.15-0.72
				c0-0.12-0.03-0.23-0.09-0.34c-0.03-0.07-0.07-0.12-0.11-0.19c-0.2-0.32-0.57-0.7-1.08-1.14c-0.22-0.19-0.64-0.52-1.23-0.97
				c1.21-0.53,2.16-0.91,2.85-1.14L116.06,41.99z M105.91,46.04c-0.15,0-0.38-0.02-0.84-0.19c-0.15-0.05-0.27-0.12-0.38-0.23
				c0.12-0.08,0.3-0.16,0.55-0.23c0.25-0.1,0.42-0.16,0.52-0.23c0.14-0.16,0.24-0.3,0.33-0.44l0.23,1.32H105.91z"/>
			<path class="st1" d="M125.75,47.41L125.75,47.41C125.74,47.41,125.74,47.41,125.75,47.41z"/>
			<polygon class="st1" points="126.87,42.61 126,42.15 125.66,42.76 126.53,43.24 			"/>
			<path class="st1" d="M128.46,45.58c-0.2,0.21-0.3,0.35-0.3,0.39c0,0,0.03,0.09,0.08,0.27c0.05,0.16,0.08,0.29,0.08,0.37
				c0,0.04,0,0.06-0.01,0.07l-0.56,0.03c0,0-0.36-0.03-0.46-0.03l0.29-1.31c-0.46,0.39-0.71,0.64-0.72,0.78
				c-0.02,0.23-0.03,0.43-0.03,0.54h-1.45v0.01c-0.21-0.01-0.34-0.04-0.37-0.11c0.12-0.14,0.2-0.39,0.24-0.71
				c0.02-0.21,0.05-0.43,0.07-0.64l-0.71,0.7c0,0.14,0,0.26,0,0.39c-0.02,0.24-0.11,0.36-0.27,0.36h-1.23h-0.39h-0.81h-0.26h-0.9
				h-0.21c-0.27-0.07-0.54-0.29-0.81-0.64l-0.62-0.9l-0.43,0.75c0.07,0.06,0.2,0.21,0.42,0.48c0.25,0.31,0.37,0.5,0.37,0.57
				c0,0.25-0.29,0.66-0.87,1.24c-0.59,0.57-1.06,0.87-1.43,0.87c-0.14,0-0.35-0.05-0.63-0.17c-0.27-0.11-0.43-0.16-0.43-0.16
				c-0.05,0-0.1,0.04-0.12,0.04v0.11c0.13,0.08,0.42,0.21,0.84,0.38c0.53,0.23,0.89,0.34,1.08,0.34c0.37,0,0.79-0.34,1.25-0.99
				c0.44-0.62,0.66-1.12,0.66-1.47c0.09,0.1,0.41,0.31,0.51,0.31h0.13h0.29h0.9h0.26h0.81h0.39h1.09c0.06,0,0.18-0.09,0.35-0.26
				l0.18,0.26c0.11,0,0.3,0,0.57-0.02h0.08v0.01h0.38v0c0,0,0.01,0,0.01,0h0.78c0.04,0,0.3-0.18,0.34-0.18c0,0,0.35,0.23,0.95,0.23
				c0,0,0.11-0.01,0.28-0.02c0.18-0.01,0.3-0.02,0.37-0.02c0.21-0.34,0.32-0.63,0.3-0.9v-1.28L128.46,45.58z"/>
			<path class="st1" d="M126.59,44.04l0.8,0.46l0.33-0.64c-0.42-0.26-0.69-0.41-0.81-0.46c-0.11,0.22-0.2,0.37-0.26,0.43
				c-0.27-0.16-0.57-0.34-0.9-0.51c-0.14,0.3-0.25,0.5-0.33,0.63l0.89,0.49L126.59,44.04z"/>
		</g>
	</g>
</g>
</svg>
