<?xml version="1.0" encoding="utf-8"?>
<!-- Generator: Adobe Illustrator 27.8.1, SVG Export Plug-In . SVG Version: 6.00 Build 0)  -->
<svg version="1.1" id="Layer_1" xmlns="http://www.w3.org/2000/svg" xmlns:xlink="http://www.w3.org/1999/xlink" x="0px" y="0px"
	 viewBox="0 0 40.83 39.44" style="enable-background:new 0 0 40.83 39.44;" xml:space="preserve">
<style type="text/css">
	.st0{fill:#1F2741;}
	.st1{fill:#EB0874;}
</style>
<g>
	<path class="st0" d="M38,21.64c-0.13-0.47-0.02-0.75,0.4-1c1.71-1.01,2.68-3.02,2.37-4.89c-0.36-2.19-1.62-3.6-3.73-4.19
		c-0.35-0.1-0.73-0.13-1.13-0.17c-0.19-0.02-0.38-0.04-0.58-0.06l-0.16-0.02l-0.08-0.25c-0.03-0.11-0.07-0.22-0.1-0.34L32.77,2.6
		c-0.53-1.92-2.32-2.99-4.17-2.48c-1.8,0.49-2.8,2.32-2.31,4.24c0.08,0.33,0.04,0.74-0.1,1.03c-0.89,1.81-2.24,3.45-4.26,5.16
		c-2.87,2.43-6.3,4.42-10.79,6.25C8.8,17.75,6.36,18.41,4,19.05c-0.72,0.19-1.44,0.39-2.15,0.59c-1.47,0.41-2.13,1.58-1.73,3.04
		c0.67,2.46,1.35,4.92,2.03,7.37c0.41,1.48,1.55,2.13,3.04,1.73l3.51-0.96l0.12,0.39c0.03,0.1,0.06,0.19,0.09,0.29l0.33,1.19
		c0.38,1.36,0.75,2.72,1.12,4.08c0.21,0.77,0.57,1.34,1.11,1.74c1.29,0.96,3.55,0.87,4.75-0.19c0.6-0.53,0.79-1.16,0.58-1.93
		c-0.19-0.66-0.37-1.32-0.55-1.99l-1.33-4.88l0.31-0.12c0.05-0.02,0.1-0.04,0.16-0.05c4.41-0.64,8.3-0.64,11.9-0.01
		c2.52,0.45,4.48,1.16,6.15,2.24c0.18,0.12,0.42,0.31,0.54,0.57c0.86,1.69,2.61,2.44,4.26,1.82c1.68-0.63,2.51-2.35,2.01-4.17
		C39.51,27.08,38.76,24.36,38,21.64z M35.91,12.87c0.04,0,0.08,0,0.12,0c1.43,0,2.83,1.1,3.23,2.56c0.42,1.54-0.27,3.27-1.56,3.94
		l-0.27,0.14l-1.83-6.63L35.91,12.87z M7.76,29.59c-0.23,0.07-0.46,0.14-0.68,0.2C6.3,30,5.52,30.22,4.74,30.42
		c-0.14,0.04-0.27,0.05-0.38,0.05c-0.42,0-0.69-0.24-0.83-0.74c-0.7-2.5-1.39-5.01-2.07-7.51c-0.16-0.57,0.04-1,0.53-1.14
		c0.83-0.25,1.66-0.48,2.51-0.71l1.26-0.35l2.59,9.39L7.76,29.59z M15.37,36.49c0.14,0.49-0.02,0.82-0.48,1.01
		c-0.34,0.14-0.78,0.29-1.25,0.29c-0.29,0-0.59-0.06-0.88-0.21c-0.37-0.19-0.82-0.61-0.97-1.07c-0.43-1.42-0.82-2.83-1.22-4.32
		l-0.49-1.78l3.37-0.76l0.15,0.51c0.06,0.22,0.13,0.43,0.19,0.65l0.45,1.64C14.61,33.8,14.98,35.15,15.37,36.49z M32.86,29.54
		l-0.19-0.02c-3.23-1.46-6.91-2.1-11.57-2.04c-3.58,0.05-7.19,0.53-10.72,1.42c-0.08,0.02-0.17,0.04-0.27,0.05L9.7,29.03l-2.56-9.32
		l0.23-0.07c6.68-2.21,14.21-5.38,19.37-12.19l0.31-0.4l6.17,22.43L32.86,29.54z M37.42,32.73c-0.12,0.02-0.24,0.03-0.36,0.03
		c-0.87,0-1.61-0.55-1.87-1.42c-0.26-0.9-0.5-1.8-0.75-2.7l-2.01-7.3c-1.58-5.76-3.17-11.53-4.76-17.29
		c-0.24-0.87-0.06-1.58,0.52-2.12c0.55-0.51,1.21-0.65,1.92-0.4c0.65,0.23,1.08,0.72,1.29,1.46c0.83,3.04,1.67,6.08,2.51,9.12
		L38.84,30c0.05,0.19,0.09,0.38,0.12,0.52l0.03,0.17C38.98,31.73,38.34,32.58,37.42,32.73z"/>
</g>
<path class="st1" d="M35.91,12.87c0.04,0,0.08,0,0.12,0c1.43,0,2.83,1.1,3.23,2.56c0.42,1.54-0.27,3.27-1.56,3.94l-0.27,0.14
	l-1.83-6.63L35.91,12.87z"/>
<path class="st1" d="M7.76,29.59c-0.23,0.07-0.46,0.14-0.68,0.2C6.3,30,5.52,30.22,4.74,30.42c-0.14,0.04-0.27,0.05-0.38,0.05
	c-0.42,0-0.69-0.24-0.83-0.74c-0.7-2.5-1.39-5.01-2.07-7.51c-0.16-0.57,0.04-1,0.53-1.14c0.83-0.25,1.66-0.48,2.51-0.71l1.26-0.35
	l2.59,9.39L7.76,29.59z"/>
</svg>
