<?xml version="1.0" encoding="utf-8"?>
<!-- Generator: Adobe Illustrator 27.8.1, SVG Export Plug-In . SVG Version: 6.00 Build 0)  -->
<svg version="1.1" id="Layer_1" xmlns="http://www.w3.org/2000/svg" xmlns:xlink="http://www.w3.org/1999/xlink" x="0px" y="0px"
	 viewBox="0 0 27.45 43.93" style="enable-background:new 0 0 27.45 43.93;" xml:space="preserve">
<style type="text/css">
	.st0{fill:#1F2741;}
	.st1{fill:#EB0874;}
</style>
<path class="st0" d="M13.75,20.58c4.22,0,8.44,0,12.65,0c0.85,0,1.04,0.19,1.04,1.02c0,7.11,0,14.21,0,21.32c0,0.78-0.21,1-0.98,1
	c-8.5,0-17,0-25.49,0C0.22,43.93,0,43.71,0,42.97c0-7.14,0-14.28,0-21.42c0-0.77,0.21-0.97,1-0.97C5.25,20.58,9.5,20.58,13.75,20.58
	z M1.41,42.52c8.24,0,16.43,0,24.63,0c0-5.03,0-10.03,0-15.04c-2.51,0-4.98,0-7.51,0c0,0.19,0,0.36,0,0.53c0,1.11,0,2.22,0,3.34
	c0,0.34-0.04,0.65-0.38,0.83c-0.34,0.19-0.62,0.02-0.9-0.16c-1.06-0.71-2.14-1.41-3.19-2.14c-0.26-0.18-0.43-0.17-0.69,0.01
	c-1.07,0.73-2.15,1.44-3.23,2.17c-0.27,0.18-0.58,0.36-0.84,0.12C9.1,32,8.94,31.67,8.93,31.41c-0.04-1.14-0.02-2.29-0.02-3.43
	c0-0.16-0.02-0.32-0.02-0.48c-2.52,0-4.99,0-7.48,0C1.41,32.49,1.41,37.49,1.41,42.52z M17.14,22c-2.3,0-4.56,0-6.82,0
	c0,2.75,0,5.47,0,8.27c1-0.66,1.95-1.28,2.89-1.92c0.35-0.24,0.67-0.24,1.02,0c0.83,0.56,1.67,1.11,2.5,1.67
	c0.12,0.08,0.24,0.15,0.41,0.25C17.14,27.46,17.14,24.74,17.14,22z M8.89,22c-2.5,0-5,0-7.48,0c0,1.37,0,2.71,0,4.04
	c2.51,0,4.99,0,7.48,0C8.89,24.68,8.89,23.36,8.89,22z M18.56,26.04c2.52,0,5,0,7.48,0c0-1.37,0-2.7,0-4.05c-2.5,0-4.98,0-7.48,0
	C18.56,23.34,18.56,24.68,18.56,26.04z"/>
<path class="st0" d="M13.74,0c4.46,0.01,8.12,3.61,8.22,8.06c0.03,1.54-0.42,2.96-1.18,4.28c-1.62,2.82-3.98,4.93-6.65,6.72
	c-0.2,0.13-0.64,0.12-0.84-0.02c-2.43-1.63-4.59-3.55-6.21-6.02c-0.94-1.43-1.57-2.98-1.59-4.72C5.44,3.74,9.18-0.01,13.74,0z
	 M13.72,17.71c0.38-0.29,0.74-0.54,1.09-0.82c1.87-1.49,3.59-3.13,4.78-5.24c0.78-1.38,1.15-2.84,0.92-4.44
	c-0.5-3.45-3.62-6-7.18-5.82C9.86,1.56,6.97,4.5,6.86,7.96c-0.05,1.66,0.55,3.11,1.45,4.46C9.74,14.53,11.62,16.19,13.72,17.71z"/>
<path class="st0" d="M12.96,36.07h-7.5c-0.43,0-0.69,0.26-0.7,0.64c-0.02,0.39,0.22,0.66,0.64,0.72c0.14,0.02,0.28,0.01,0.42,0.01
	h6.85c0.11,0,0.22,0,0.32,0c0.46-0.04,0.76-0.33,0.73-0.73C13.7,36.33,13.41,36.07,12.96,36.07z"/>
<path class="st0" d="M8.11,38.8c-1.51-0.01-1.02-0.01-2.54,0c-0.52,0-0.81,0.26-0.81,0.68c0,0.43,0.28,0.68,0.8,0.68H8.1
	c0.53,0,0.81-0.25,0.81-0.67C8.91,39.07,8.63,38.8,8.11,38.8z"/>
<path class="st0" d="M13.77,4.13c2.29,0.03,4.1,1.88,4.06,4.17c-0.03,2.27-1.86,4.07-4.13,4.05c-2.29-0.02-4.11-1.86-4.09-4.14
	C9.63,5.92,11.48,4.1,13.77,4.13z M13.74,10.99c1.51-0.02,2.74-1.26,2.73-2.76s-1.25-2.74-2.75-2.74c-1.52,0-2.78,1.27-2.75,2.78
	C11,9.78,12.25,11.01,13.74,10.99z"/>
<path class="st1" d="M17.14,22c-2.3,0-4.56,0-6.82,0c0,2.75,0,5.47,0,8.27c1-0.66,1.95-1.28,2.89-1.92c0.35-0.24,0.67-0.24,1.02,0
	c0.83,0.56,1.67,1.11,2.5,1.67c0.12,0.08,0.24,0.15,0.41,0.25C17.14,27.46,17.14,24.74,17.14,22z"/>
</svg>
