<?xml version="1.0" encoding="utf-8"?>
<!-- Generator: Adobe Illustrator 27.8.1, SVG Export Plug-In . SVG Version: 6.00 Build 0)  -->
<svg version="1.1" id="Layer_1" xmlns="http://www.w3.org/2000/svg" xmlns:xlink="http://www.w3.org/1999/xlink" x="0px" y="0px"
	 viewBox="0 0 30.23 42.69" style="enable-background:new 0 0 30.23 42.69;" xml:space="preserve">
<style type="text/css">
	.st0{fill:#1F2741;}
	.st1{fill:#EB0874;}
</style>
<g>
	<path class="st0" d="M29.09,26.45c-1.55-3.48-4.46-6.13-7.98-7.28c-0.63-0.21-1.03-0.13-1.53,0.27c-2.67,2.13-6.24,2.15-8.88,0.05
		c-0.36-0.28-0.67-0.42-1.04-0.42c-0.23,0-0.48,0.05-0.78,0.16c-5.65,1.99-9.29,7.57-8.84,13.58c0.36,4.85,3.72,8.67,8.34,9.52
		c1.47,0.27,3.03,0.3,4.55,0.33c0.5,0.01,1,0.02,1.49,0.04v-0.08h0.62c0.48,0,0.96,0,1.44,0.01c1.04,0.01,2.07,0.02,3.11-0.01
		c4.65-0.14,7.9-2.25,9.67-6.28C30.61,33.28,30.54,29.69,29.09,26.45z M10.07,26.84c0.98,0.01,1.76,0.81,1.75,1.78
		c-0.01,0.97-0.8,1.75-1.77,1.75h-0.01c-0.47,0-0.91-0.19-1.24-0.53s-0.5-0.78-0.5-1.25c0-0.48,0.19-0.92,0.52-1.24
		C9.15,27.01,9.57,26.81,10.07,26.84z M28.25,35.13c-1.1,3.52-4.49,6.02-8.24,6.07c-1.33,0.02-2.67,0.02-4,0.02
		c-0.92,0-1.84,0-2.76,0h-2.39c-5.57,0-9.47-3.86-9.48-9.38c-0.01-4.62,2.11-8.18,6.29-10.58c0.16-0.09,0.32-0.16,0.49-0.23
		c0.17-0.07,0.29-0.07,0.38-0.07l0.79-0.04v1.49C9.34,23.19,9.35,24,9.3,24.8c-0.03,0.49-0.46,0.82-0.88,1.08
		c-1.34,0.82-1.9,2.46-1.32,3.88c0.56,1.39,2.06,2.21,3.49,1.93c1.58-0.32,2.66-1.69,2.56-3.26c-0.07-1.15-0.59-2-1.56-2.53
		c-0.64-0.35-0.92-0.84-0.88-1.53c0.02-0.44,0.02-0.89,0.01-1.37v-1.65l0.89,0.35c2.31,0.92,4.44,0.94,6.71,0.08l0.88-0.33V23
		c0,0.57,0.01,1.1-0.02,1.63c-0.03,0.49-0.5,0.8-0.77,0.94c-1.39,0.71-2.03,1.78-2.02,3.36c0.01,1.38,0.01,2.77,0.01,4.15v0.35
		c0,1.09,0.47,1.1,0.67,1.1c0.25,0,0.36-0.08,0.43-0.14c0.18-0.17,0.28-0.53,0.28-1c0-0.64,0,0.72,0,0.07
		c-0.01-1.56-0.01-3.17,0.04-4.75c0.02-0.65,0.5-1.43,1.08-1.79c0.55-0.33,1.58-0.24,2.07,0.2c0.54,0.47,0.79,1.27,0.81,1.85
		c0.05,1.51,0.04,3.04,0.03,4.51l-0.01-0.15c0,0.17,0,0.34,0.01,0.5c0.04,0.44,0.31,0.71,0.68,0.69c0.38-0.01,0.63-0.27,0.64-0.66
		c0.02-0.99,0.02,0.03,0.02-0.96v-1.2c0-0.24,0-0.48-0.01-0.72c-0.01-0.52-0.02-1.05,0.02-1.57c0.13-2.07-0.66-3.37-2.49-4.07
		l-0.42-0.16v-4.83l0.87,0.32c1.88,0.68,3.46,1.79,4.72,3.29C28.7,27.36,29.51,31.11,28.25,35.13z"/>
	<path class="st0" d="M24.03,8.9c-0.01-2.37-0.96-4.61-2.66-6.3C19.68,0.92,17.45,0,15.1,0c-0.02,0-0.03,0-0.05,0
		c-4.89,0.03-8.88,4.03-8.89,8.92c0,2.37,0.93,4.61,2.64,6.31c1.7,1.7,3.93,2.63,6.29,2.63c0.01,0,0.01,0,0.02,0
		c2.38,0,4.62-0.95,6.32-2.66C23.12,13.5,24.04,11.26,24.03,8.9z M15.09,16.49c-0.02,0-0.03,0-0.05,0
		c-4.15-0.03-7.51-3.44-7.49-7.59c0.02-4.14,3.41-7.5,7.55-7.5h0.01c4.15,0.01,7.53,3.39,7.53,7.54c0,2.02-0.79,3.92-2.23,5.35
		C18.98,15.7,17.09,16.49,15.09,16.49z"/>
</g>
<path class="st1" d="M10.07,26.84c0.98,0.01,1.76,0.81,1.75,1.78c-0.01,0.97-0.8,1.75-1.77,1.75h-0.01c-0.47,0-0.91-0.19-1.24-0.53
	s-0.5-0.78-0.5-1.25c0-0.48,0.19-0.92,0.52-1.24C9.15,27.01,9.57,26.81,10.07,26.84z"/>
</svg>
